<?xml version="1.0" standalone="no"?>
<!DOCTYPE svg PUBLIC "-//W3C//DTD SVG 20010904//EN"
 "http://www.w3.org/TR/2001/REC-SVG-20010904/DTD/svg10.dtd">
<svg version="1.0" xmlns="http://www.w3.org/2000/svg"
 width="700.000000pt" height="700.000000pt" viewBox="0 0 700.000000 700.000000"
 preserveAspectRatio="xMidYMid meet">
<metadata>
Created by potrace 1.11, written by Peter Selinger 2001-2013
</metadata>
<g transform="translate(0.000000,700.000000) scale(0.100000,-0.100000)"
fill="#000000" stroke="none">
<path d="M1206 5540 l-40 -5 0 -556 c-1 -305 1 -566 4 -580 l5 -24 575 0 c316
-1 577 2 580 6 7 10 5 1147 -2 1154 -7 7 -1068 12 -1122 5z"/>
<path d="M2665 5540 l-40 -5 1 -570 c1 -313 2 -575 3 -580 1 -7 587 -10 1748
-10 l1748 0 0 583 0 582 -25 0 c-289 4 -3407 4 -3435 0z"/>
<path d="M1171 4075 c-8 -12 -7 -1137 1 -1151 7 -10 1137 -12 1153 -2 12 7 13
1143 2 1155 -12 11 -1148 10 -1156 -2z"/>
<path d="M2637 4080 c-18 -7 -18 -1153 0 -1160 10 -4 3439 -5 3478 -1 7 1 10
196 9 579 -1 317 -2 579 -3 582 -1 7 -3468 7 -3484 0z"/>
<path d="M1177 2620 c-9 -4 -12 -138 -12 -583 l0 -577 95 0 c454 -2 1062 0
1068 4 5 3 8 1070 3 1146 -1 13 -70 15 -571 15 -314 0 -576 -2 -583 -5z"/>
<path d="M2629 2625 c-1 0 -2 -262 -3 -582 l-1 -583 75 0 c698 -3 3412 0 3418
4 4 2 7 264 7 583 l0 578 -1748 0 c-961 0 -1748 0 -1748 0z"/>
</g>
</svg>
